<?xml version="1.0" encoding="UTF-8" standalone="no"?>
<!-- Created with Inkscape (http://www.inkscape.org/) -->

<svg
   width="42.859997"
   height="86.92997"
   viewBox="0 0 11.340041 23.000221"
   version="1.1"
   id="svg3548"
   inkscape:version="1.1.2 (0a00cf5339, 2022-02-04)"
   sodipodi:docname="distiler.svg"
   xmlns:inkscape="http://www.inkscape.org/namespaces/inkscape"
   xmlns:sodipodi="http://sodipodi.sourceforge.net/DTD/sodipodi-0.dtd"
   xmlns="http://www.w3.org/2000/svg"
   xmlns:svg="http://www.w3.org/2000/svg">
  <sodipodi:namedview
     id="namedview3550"
     pagecolor="#ffffff"
     bordercolor="#666666"
     borderopacity="1.0"
     inkscape:pageshadow="2"
     inkscape:pageopacity="0.0"
     inkscape:pagecheckerboard="0"
     inkscape:document-units="mm"
     showgrid="false"
     fit-margin-top="0"
     fit-margin-left="0"
     fit-margin-right="0"
     fit-margin-bottom="0"
     units="px"
     inkscape:zoom="0.56123737"
     inkscape:cx="4.4544432"
     inkscape:cy="334.97413"
     inkscape:window-width="1920"
     inkscape:window-height="976"
     inkscape:window-x="0"
     inkscape:window-y="38"
     inkscape:window-maximized="1"
     inkscape:current-layer="layer1" />
  <defs
     id="defs3545" />
  <g
     inkscape:label="Layer 1"
     inkscape:groupmode="layer"
     id="layer1"
     transform="translate(-103.82657,-59.825965)">
    <g
       id="g3207"
       transform="matrix(0.26458333,0,0,0.26458333,-124.2813,-160.59047)">
      <g
         id="g3079">
        <path
           class="st1"
           d="m 900.27,850.44 v 0 c -1.59,0 -2.88,1.29 -2.88,2.88 v 0 c 0,1.59 1.29,2.88 2.88,2.88 v 0 c 1.59,0 2.88,-1.29 2.88,-2.88 v 0 c 0,-1.59 -1.29,-2.88 -2.88,-2.88 z"
           id="path3077" />
      </g>
      <g
         id="g3083">
        <path
           d="m 869.89,879.52 v 0 c 0,1.59 -1.29,2.88 -2.88,2.88 v 0 c 1.59,0 2.88,1.29 2.88,2.88 v 0 c 0,-1.59 1.29,-2.88 2.88,-2.88 v 0 c -1.59,0 -2.88,-1.29 -2.88,-2.88 z"
           id="path3081" />
      </g>
      <g
         id="g3087">
        <path
           d="m 876.68,879.52 v 0 c 0,1.59 -1.29,2.88 -2.88,2.88 v 0 c 1.59,0 2.88,1.29 2.88,2.88 v 0 c 0,-1.59 1.29,-2.88 2.88,-2.88 v 0 c -1.59,0 -2.88,-1.29 -2.88,-2.88 z"
           id="path3085" />
      </g>
      <g
         id="g3091">
        <path
           d="m 883.47,879.52 v 0 c 0,1.59 -1.29,2.88 -2.88,2.88 v 0 c 1.59,0 2.88,1.29 2.88,2.88 v 0 c 0,-1.59 1.29,-2.88 2.88,-2.88 v 0 c -1.59,0 -2.88,-1.29 -2.88,-2.88 z"
           id="path3089" />
      </g>
      <g
         id="g3095">
        <path
           d="m 890.26,879.52 v 0 c 0,1.59 -1.29,2.88 -2.88,2.88 v 0 c 1.59,0 2.88,1.29 2.88,2.88 v 0 c 0,-1.59 1.29,-2.88 2.88,-2.88 v 0 c -1.59,0 -2.88,-1.29 -2.88,-2.88 z"
           id="path3093" />
      </g>
      <g
         id="g3099">
        <path
           d="m 897.05,879.52 v 0 c 0,1.59 -1.29,2.88 -2.88,2.88 v 0 c 1.59,0 2.88,1.29 2.88,2.88 v 0 c 0,-1.59 1.29,-2.88 2.88,-2.88 v 0 c -1.59,0 -2.88,-1.29 -2.88,-2.88 z"
           id="path3097" />
      </g>
      <g
         id="g3103">
        <path
           d="m 869.89,886.61 v 0 c 0,1.59 -1.29,2.88 -2.88,2.88 v 0 c 1.59,0 2.88,1.29 2.88,2.88 v 0 c 0,-1.59 1.29,-2.88 2.88,-2.88 v 0 c -1.59,0.01 -2.88,-1.28 -2.88,-2.88 z"
           id="path3101" />
      </g>
      <g
         id="g3107">
        <path
           d="m 876.68,886.61 v 0 c 0,1.59 -1.29,2.88 -2.88,2.88 v 0 c 1.59,0 2.88,1.29 2.88,2.88 v 0 c 0,-1.59 1.29,-2.88 2.88,-2.88 v 0 c -1.59,0.01 -2.88,-1.28 -2.88,-2.88 z"
           id="path3105" />
      </g>
      <g
         id="g3111">
        <path
           d="m 883.47,886.61 v 0 c 0,1.59 -1.29,2.88 -2.88,2.88 v 0 c 1.59,0 2.88,1.29 2.88,2.88 v 0 c 0,-1.59 1.29,-2.88 2.88,-2.88 v 0 c -1.59,0.01 -2.88,-1.28 -2.88,-2.88 z"
           id="path3109" />
      </g>
      <g
         id="g3115">
        <path
           d="m 890.26,886.61 v 0 c 0,1.59 -1.29,2.88 -2.88,2.88 v 0 c 1.59,0 2.88,1.29 2.88,2.88 v 0 c 0,-1.59 1.29,-2.88 2.88,-2.88 v 0 c -1.59,0.01 -2.88,-1.28 -2.88,-2.88 z"
           id="path3113" />
      </g>
      <g
         id="g3119">
        <path
           d="m 897.05,886.61 v 0 c 0,1.59 -1.29,2.88 -2.88,2.88 v 0 c 1.59,0 2.88,1.29 2.88,2.88 v 0 c 0,-1.59 1.29,-2.88 2.88,-2.88 v 0 c -1.59,0.01 -2.88,-1.28 -2.88,-2.88 z"
           id="path3117" />
      </g>
      <g
         id="g3123">
        <path
           d="m 869.89,893.71 v 0 c 0,1.59 -1.29,2.88 -2.88,2.88 v 0 c 1.59,0 2.88,1.29 2.88,2.88 v 0 c 0,-1.59 1.29,-2.88 2.88,-2.88 v 0 c -1.59,0 -2.88,-1.29 -2.88,-2.88 z"
           id="path3121" />
      </g>
      <g
         id="g3127">
        <path
           d="m 876.68,893.71 v 0 c 0,1.59 -1.29,2.88 -2.88,2.88 v 0 c 1.59,0 2.88,1.29 2.88,2.88 v 0 c 0,-1.59 1.29,-2.88 2.88,-2.88 v 0 c -1.59,0 -2.88,-1.29 -2.88,-2.88 z"
           id="path3125" />
      </g>
      <g
         id="g3131">
        <path
           d="m 883.47,893.71 v 0 c 0,1.59 -1.29,2.88 -2.88,2.88 v 0 c 1.59,0 2.88,1.29 2.88,2.88 v 0 c 0,-1.59 1.29,-2.88 2.88,-2.88 v 0 c -1.59,0 -2.88,-1.29 -2.88,-2.88 z"
           id="path3129" />
      </g>
      <g
         id="g3135">
        <path
           d="m 890.26,893.71 v 0 c 0,1.59 -1.29,2.88 -2.88,2.88 v 0 c 1.59,0 2.88,1.29 2.88,2.88 v 0 c 0,-1.59 1.29,-2.88 2.88,-2.88 v 0 c -1.59,0 -2.88,-1.29 -2.88,-2.88 z"
           id="path3133" />
      </g>
      <g
         id="g3139">
        <path
           d="m 897.05,893.71 v 0 c 0,1.59 -1.29,2.88 -2.88,2.88 v 0 c 1.59,0 2.88,1.29 2.88,2.88 v 0 c 0,-1.59 1.29,-2.88 2.88,-2.88 v 0 c -1.59,0 -2.88,-1.29 -2.88,-2.88 z"
           id="path3137" />
      </g>
      <g
         id="g3143">
        <path
           d="m 869.89,900.8 v 0 c 0,1.59 -1.29,2.88 -2.88,2.88 v 0 c 1.59,0 2.88,1.29 2.88,2.88 v 0 c 0,-1.59 1.29,-2.88 2.88,-2.88 v 0 c -1.59,0.01 -2.88,-1.28 -2.88,-2.88 z"
           id="path3141" />
      </g>
      <g
         id="g3147">
        <path
           d="m 876.68,900.8 v 0 c 0,1.59 -1.29,2.88 -2.88,2.88 v 0 c 1.59,0 2.88,1.29 2.88,2.88 v 0 c 0,-1.59 1.29,-2.88 2.88,-2.88 v 0 c -1.59,0.01 -2.88,-1.28 -2.88,-2.88 z"
           id="path3145" />
      </g>
      <g
         id="g3151">
        <path
           d="m 883.47,900.8 v 0 c 0,1.59 -1.29,2.88 -2.88,2.88 v 0 c 1.59,0 2.88,1.29 2.88,2.88 v 0 c 0,-1.59 1.29,-2.88 2.88,-2.88 v 0 c -1.59,0.01 -2.88,-1.28 -2.88,-2.88 z"
           id="path3149" />
      </g>
      <g
         id="g3155">
        <path
           d="m 890.26,900.8 v 0 c 0,1.59 -1.29,2.88 -2.88,2.88 v 0 c 1.59,0 2.88,1.29 2.88,2.88 v 0 c 0,-1.59 1.29,-2.88 2.88,-2.88 v 0 c -1.59,0.01 -2.88,-1.28 -2.88,-2.88 z"
           id="path3153" />
      </g>
      <g
         id="g3159">
        <path
           d="m 897.05,900.8 v 0 c 0,1.59 -1.29,2.88 -2.88,2.88 v 0 c 1.59,0 2.88,1.29 2.88,2.88 v 0 c 0,-1.59 1.29,-2.88 2.88,-2.88 v 0 c -1.59,0.01 -2.88,-1.28 -2.88,-2.88 z"
           id="path3157" />
      </g>
      <g
         id="g3169">
        <g
           id="g3163">
          <path
             class="st1"
             d="m 883.57,854.47 c 4.66,0 8.45,3.79 8.45,8.45 0,4.66 -3.79,8.45 -8.45,8.45 -4.66,0 -8.45,-3.79 -8.45,-8.45 0,-4.65 3.79,-8.45 8.45,-8.45 m 0,-1.8 c -5.66,0 -10.26,4.59 -10.26,10.26 0,5.66 4.59,10.26 10.26,10.26 5.66,0 10.26,-4.59 10.26,-10.26 -0.01,-5.67 -4.6,-10.26 -10.26,-10.26 z"
             id="path3161" />
        </g>
        <g
           id="g3167">
          <circle
             class="st1"
             cx="883.57001"
             cy="862.92999"
             r="3.77"
             id="circle3165" />
        </g>
      </g>
      <g
         id="g3177">
        <g
           id="g3175">
          <g
             id="g3173">
            <path
               class="st1"
               d="m 886.35,834.87 c 4.66,0 8.45,3.79 8.45,8.45 0,4.66 -3.79,8.45 -8.45,8.45 h -6.79 c -4.66,0 -8.45,-3.79 -8.45,-8.45 0,-4.66 3.79,-8.45 8.45,-8.45 h 6.79 m 0,-1.8 h -6.79 c -5.66,0 -10.26,4.59 -10.26,10.26 0,5.66 4.59,10.26 10.26,10.26 h 6.79 c 5.66,0 10.26,-4.59 10.26,-10.26 0,-5.67 -4.59,-10.26 -10.26,-10.26 z"
               id="path3171" />
          </g>
        </g>
      </g>
      <g
         id="g3181">
        <path
           class="st1"
           d="m 903.63,876.78 h -1.8 v -4.95 c 0,-10.07 -8.19,-18.26 -18.26,-18.26 -10.07,0 -18.26,8.19 -18.26,18.26 v 4.95 h -1.8 v -4.95 c 0,-11.06 9,-20.06 20.06,-20.06 11.06,0 20.06,9 20.06,20.06 z"
           id="path3179" />
      </g>
      <g
         id="g3185">
        <path
           class="st1"
           d="M 905,908.87 H 862.14 V 875.88 H 905 Z m -41.06,-1.81 h 39.26 v -29.38 h -39.26 z"
           id="path3183" />
      </g>
      <g
         id="g3189">
        <path
           class="st1"
           d="m 883.47,916.62 c -0.12,0 -0.23,-0.02 -0.34,-0.07 l -19.06,-7.75 c -0.4,-0.16 -0.63,-0.58 -0.54,-1.01 0.08,-0.42 0.45,-0.73 0.88,-0.73 h 38.32 c 0.43,0 0.8,0.31 0.88,0.73 0.08,0.42 -0.15,0.85 -0.55,1.01 l -19.26,7.75 c -0.1,0.05 -0.22,0.07 -0.33,0.07 z m -14.45,-7.75 14.45,5.88 14.61,-5.88 z"
           id="path3187" />
      </g>
      <g
         id="g3193">
        <rect
           x="863.51001"
           y="907.96997"
           class="st1"
           width="1.8"
           height="12.03"
           id="rect3191" />
      </g>
      <g
         id="g3197">
        <rect
           x="901.83002"
           y="907.96997"
           class="st1"
           width="1.8"
           height="12.03"
           id="rect3195" />
      </g>
      <g
         id="g3201">
        <rect
           x="882.66998"
           y="915.71997"
           class="st1"
           width="1.8"
           height="4.2800002"
           id="rect3199" />
      </g>
      <g
         id="g3205">
        <rect
           x="895.89001"
           y="854.40997"
           transform="matrix(0.7073,-0.707,0.707,0.7073,-341.6856,885.4755)"
           class="st1"
           width="4.9099998"
           height="1.8"
           id="rect3203" />
      </g>
    </g>
  </g>
</svg>
