<?xml version="1.0" encoding="UTF-8" standalone="no"?>
<svg
   id="Design"
   viewBox="0 0 86.929974 86.929971"
   version="1.1"
   sodipodi:docname="ecology.svg"
   inkscape:version="1.1.2 (0a00cf5339, 2022-02-04)"
   width="86.92997"
   height="86.92997"
   xmlns:inkscape="http://www.inkscape.org/namespaces/inkscape"
   xmlns:sodipodi="http://sodipodi.sourceforge.net/DTD/sodipodi-0.dtd"
   xmlns="http://www.w3.org/2000/svg"
   xmlns:svg="http://www.w3.org/2000/svg">
  <sodipodi:namedview
     id="namedview25"
     pagecolor="#ffffff"
     bordercolor="#666666"
     borderopacity="1.0"
     inkscape:pageshadow="2"
     inkscape:pageopacity="0.0"
     inkscape:pagecheckerboard="0"
     showgrid="false"
     inkscape:zoom="3.9799736"
     inkscape:cx="79.146254"
     inkscape:cy="78.769367"
     inkscape:window-width="1920"
     inkscape:window-height="976"
     inkscape:window-x="0"
     inkscape:window-y="38"
     inkscape:window-maximized="1"
     inkscape:current-layer="Design"
     fit-margin-top="0"
     fit-margin-left="0"
     fit-margin-right="0"
     fit-margin-bottom="0" />
  <defs
     id="defs4">
    <style
       id="style2">.cls-1{fill:none;stroke:#1d1d1b;stroke-miterlimit:10;stroke-width:3px;}.cls-2{fill:#1d1d1b;stroke-width:0px;}</style>
  </defs>
  <g
     id="g851"
     transform="scale(0.55136576,0.55265787)">
    <line
       class="cls-1"
       y1="155.92"
       x2="157.78999"
       y2="155.92"
       id="line6"
       x1="0" />
    <polygon
       class="cls-2"
       points=""
       id="polygon8" />
    <path
       class="cls-2"
       d="m 8.09,143.99 c 4.02,4.02 10.82,6.63 16.73,0.72 4.37,-4.37 3.51,-9.95 0.48,-12.98 -1.33,-1.33 -3.01,-2.1 -4.74,-2.18 -1.94,-0.08 -3.78,0.7 -5.34,2.25 l 2.36,2.36 c 0.89,-0.89 1.85,-1.32 2.84,-1.28 0.89,0.04 1.78,0.46 2.52,1.2 1.56,1.56 2.73,5.06 -0.48,8.27 -5.24,5.24 -10.52,0.77 -12.01,-0.72 -5.07,-5.07 -5.06,-13.95 0,-19.02 5.24,-5.24 13.77,-5.24 19.02,0 l 19.26,19.26 c 0.31,0.35 0.61,0.71 0.94,1.04 0.4,0.4 0.83,0.74 1.24,1.12 2.27,2.09 4.7,3.88 7.28,5.37 0.97,0.56 1.95,1.08 2.95,1.56 2.42,1.15 4.91,2.05 7.47,2.71 1.08,0.28 2.16,0.52 3.26,0.71 3.01,0.52 6.06,0.69 9.11,0.54 1.11,-0.05 2.22,-0.15 3.33,-0.29 2.29,-0.29 4.56,-0.75 6.78,-1.43 1.06,-0.32 2.11,-0.69 3.15,-1.1 1.87,-0.74 3.69,-1.65 5.46,-2.68 0.96,-0.55 1.9,-1.14 2.82,-1.77 1.57,-1.09 3.07,-2.31 4.51,-3.63 0.41,-0.38 0.84,-0.72 1.24,-1.12 0.34,-0.34 0.63,-0.69 0.95,-1.04 l 19.12,-19.12 c 5.24,-5.24 13.77,-5.24 19.02,0 5.06,5.06 5.07,13.95 0,19.02 -1.49,1.49 -6.77,5.96 -12.01,0.72 -3.21,-3.21 -2.05,-6.7 -0.48,-8.27 0.74,-0.74 1.63,-1.16 2.52,-1.2 0.99,-0.04 1.95,0.39 2.84,1.28 l 2.36,-2.36 c -1.56,-1.56 -3.4,-2.34 -5.34,-2.25 -1.72,0.07 -3.41,0.85 -4.74,2.18 -3.03,3.03 -3.89,8.61 0.48,12.98 5.91,5.91 12.7,3.3 16.73,-0.72 6.43,-6.43 6.43,-17.3 0,-23.74 -6.54,-6.54 -17.19,-6.54 -23.74,0 l -20.11,20.11 0.07,0.07 v 0 c -0.4,0.4 -0.83,0.74 -1.24,1.12 -14.55,13.34 -36.89,13.34 -51.43,0 -0.41,-0.38 -0.84,-0.72 -1.24,-1.12 l 0.07,-0.07 -20.25,-20.25 c -6.54,-6.54 -17.19,-6.54 -23.74,0 -6.43,6.43 -6.43,17.3 0,23.74 z"
       id="path10" />
    <path
       class="cls-2"
       d="m 40.63,99.15 29.87,52.81 c -0.46,0.26 -0.9,0.54 -1.36,0.81 L 37.8,97.36 C 34.34,91.25 26.56,89.09 20.45,92.55 14.34,96.01 12.3,104 15.64,109.9 c 0.99,1.74 4.67,7.15 10.77,3.7 3.74,-2.12 3.56,-5.6 2.53,-7.42 -0.49,-0.86 -1.19,-1.48 -1.99,-1.73 -0.9,-0.29 -1.88,-0.14 -2.92,0.45 l -1.55,-2.75 c 1.81,-1.03 3.7,-1.27 5.44,-0.7 1.56,0.5 2.89,1.63 3.77,3.18 2,3.53 1.37,8.84 -3.73,11.72 -6.88,3.89 -12.42,-0.2 -15.08,-4.89 -4.24,-7.5 -1.49,-17.41 6.01,-21.65 7.5,-4.24 17.34,-1.62 21.65,6.01 l 31.34,55.41 c -0.46,0.25 -0.93,0.48 -1.39,0.74 L 40.62,99.16 Z"
       id="path12" />
    <path
       class="cls-2"
       d="m 117.16,99.15 -29.87,52.81 c 0.46,0.26 0.9,0.54 1.36,0.81 l 31.34,-55.41 c 3.46,-6.11 11.24,-8.27 17.35,-4.81 6.11,3.46 8.15,11.45 4.81,17.35 -0.99,1.74 -4.67,7.15 -10.77,3.7 -3.74,-2.12 -3.56,-5.6 -2.53,-7.42 0.49,-0.86 1.19,-1.48 1.99,-1.73 0.9,-0.29 1.88,-0.14 2.92,0.45 l 1.55,-2.75 c -1.81,-1.03 -3.7,-1.27 -5.44,-0.7 -1.56,0.5 -2.89,1.63 -3.77,3.18 -2,3.53 -1.37,8.84 3.73,11.72 6.88,3.89 12.42,-0.2 15.08,-4.89 4.24,-7.5 1.49,-17.41 -6.01,-21.65 -7.5,-4.24 -17.34,-1.62 -21.65,6.01 l -31.34,55.41 c 0.46,0.25 0.93,0.48 1.39,0.74 l 29.87,-52.81 z"
       id="path14" />
    <path
       class="cls-2"
       d="m 61.45,81.19 14.78,71.54 c -0.52,0.08 -1.04,0.18 -1.56,0.27 L 59.46,78.51 C 58.45,71.56 51.98,66.73 45.03,67.74 c -6.71,0.97 -11.75,7.72 -10.77,14.43 0.29,1.98 1.76,8.36 8.7,7.35 4.25,-0.62 5.35,-3.92 5.05,-6 -0.14,-0.98 -0.58,-1.81 -1.23,-2.34 -0.73,-0.59 -1.7,-0.81 -2.88,-0.64 l -0.45,-3.13 c 2.06,-0.3 3.91,0.16 5.33,1.31 1.27,1.03 2.1,2.57 2.36,4.33 0.58,4.01 -1.93,8.74 -7.72,9.58 C 35.59,93.76 31.91,87.94 31.14,82.61 29.9,74.08 36.06,65.84 44.59,64.6 53.12,63.36 61.34,69.38 62.6,78.05 l 15.21,74.49 c -0.52,0.06 -1.04,0.11 -1.57,0.19 L 61.46,81.19 Z"
       id="path16" />
    <path
       class="cls-2"
       d="m 96.34,81.19 -14.78,71.54 c 0.52,0.08 1.04,0.18 1.56,0.27 L 98.33,78.51 c 1.01,-6.95 7.48,-11.78 14.43,-10.77 6.71,0.97 11.75,7.72 10.77,14.43 -0.29,1.98 -1.76,8.36 -8.7,7.35 -4.25,-0.62 -5.35,-3.92 -5.05,-6 0.14,-0.98 0.58,-1.81 1.23,-2.34 0.73,-0.59 1.7,-0.81 2.88,-0.64 l 0.45,-3.13 c -2.06,-0.3 -3.91,0.16 -5.33,1.31 -1.27,1.03 -2.1,2.57 -2.36,4.33 -0.58,4.01 1.93,8.74 7.72,9.58 7.83,1.13 11.51,-4.69 12.28,-10.02 1.24,-8.53 -4.92,-16.77 -13.45,-18.01 -8.53,-1.24 -16.75,4.78 -18.01,13.45 l -15.21,74.49 c 0.52,0.06 1.04,0.11 1.57,0.19 L 96.33,81.19 Z"
       id="path18" />
    <path
       class="cls-2"
       d="m 93.72,15.47 c -6.33,0 -11.83,3.6 -14.58,8.85 -2.56,-5.79 -8.34,-9.85 -15.07,-9.85 -8.93,0 -16.47,7.54 -16.47,16.47 0,5.58 2.91,12.11 11.11,12.11 6.07,0 9.34,-4.47 9.34,-8.67 0,-1.85 -0.63,-3.55 -1.78,-4.8 -1.29,-1.4 -3.11,-2.14 -5.27,-2.14 v 3.27 c 1.24,0 2.2,0.36 2.86,1.08 0.59,0.64 0.92,1.56 0.92,2.58 0,2.17 -1.62,5.4 -6.07,5.4 -7.27,0 -7.83,-6.76 -7.83,-8.83 0,-7.03 6.17,-13.19 13.19,-13.19 7.02,0 13.19,5.92 13.19,13.19 v 0.77 c 0,0.08 -0.01,0.15 -0.01,0.23 h 0.01 v 121.97 c 0.55,-0.01 1.09,-0.04 1.64,-0.04 0.55,0 1.09,0.03 1.64,0.04 V 31.7 c 0.12,-7.17 5.99,-12.96 13.18,-12.96 7.19,0 13.19,6.17 13.19,13.19 0,2.07 -0.56,8.83 -7.83,8.83 -4.45,0 -6.07,-3.23 -6.07,-5.4 0,-1.02 0.33,-1.94 0.92,-2.58 0.66,-0.72 1.62,-1.08 2.86,-1.08 v -3.27 c -2.16,0 -3.98,0.74 -5.27,2.14 -1.15,1.25 -1.78,2.95 -1.78,4.8 0,4.2 3.27,8.67 9.34,8.67 8.2,0 11.11,-6.52 11.11,-12.11 0,-8.93 -7.54,-16.47 -16.47,-16.47 z"
       id="path20" />
    <circle
       class="cls-2"
       cx="78.889999"
       cy="6.8099999"
       r="6.8099999"
       id="circle22" />
  </g>
</svg>
