<?xml version="1.0" encoding="UTF-8" standalone="no"?>
<!-- Created with Inkscape (http://www.inkscape.org/) -->

<svg
   width="69.915001"
   height="86.479996"
   viewBox="0 0 18.498344 22.881166"
   version="1.1"
   id="svg4985"
   inkscape:version="1.1.2 (0a00cf5339, 2022-02-04)"
   sodipodi:docname="more.svg"
   xmlns:inkscape="http://www.inkscape.org/namespaces/inkscape"
   xmlns:sodipodi="http://sodipodi.sourceforge.net/DTD/sodipodi-0.dtd"
   xmlns="http://www.w3.org/2000/svg"
   xmlns:svg="http://www.w3.org/2000/svg">
  <sodipodi:namedview
     id="namedview4987"
     pagecolor="#ffffff"
     bordercolor="#666666"
     borderopacity="1.0"
     inkscape:pageshadow="2"
     inkscape:pageopacity="0.0"
     inkscape:pagecheckerboard="0"
     inkscape:document-units="mm"
     showgrid="false"
     fit-margin-top="0"
     fit-margin-left="0"
     fit-margin-right="0"
     fit-margin-bottom="0"
     units="px"
     inkscape:zoom="1.3713723"
     inkscape:cx="-108.28569"
     inkscape:cy="15.313128"
     inkscape:window-width="1920"
     inkscape:window-height="976"
     inkscape:window-x="0"
     inkscape:window-y="38"
     inkscape:window-maximized="1"
     inkscape:current-layer="g3377" />
  <defs
     id="defs4982" />
  <g
     inkscape:label="Layer 1"
     inkscape:groupmode="layer"
     id="layer1"
     transform="translate(-42.136547,-91.802271)">
    <g
       id="g3377"
       transform="matrix(0.26458333,0,0,0.26458333,-247.15159,-128.73058)">
      <polygon
         class="st1"
         points=""
         id="polygon3279" />
      <polygon
         class="st1"
         points=""
         id="polygon3351" />
      <g
         id="g6461">
        <g
           id="g3243">
          <path
             class="st1"
             d="m 1128.34,889.95 v 0 c -1.59,0 -2.88,1.29 -2.88,2.88 v 0 c 0,1.59 1.29,2.88 2.88,2.88 v 0 c 1.59,0 2.88,-1.29 2.88,-2.88 v 0 c 0,-1.59 -1.29,-2.88 -2.88,-2.88 z"
             id="path3241" />
        </g>
        <g
           id="g3247">
          <path
             class="st1"
             d="m 1128.34,902.09 v 0 c -1.59,0 -2.88,1.29 -2.88,2.88 v 0 c 0,1.59 1.29,2.88 2.88,2.88 v 0 c 1.59,0 2.88,-1.29 2.88,-2.88 v 0 c 0,-1.59 -1.29,-2.88 -2.88,-2.88 z"
             id="path3245" />
        </g>
        <g
           id="g3251">
          <path
             class="st1"
             d="m 1128.34,914.23 v 0 c -1.59,0 -2.88,1.29 -2.88,2.88 v 0 c 0,1.59 1.29,2.88 2.88,2.88 v 0 c 1.59,0 2.88,-1.29 2.88,-2.88 v 0 c 0,-1.59 -1.29,-2.88 -2.88,-2.88 z"
             id="path3249" />
        </g>
        <path
           class="st1"
           d="m 1125.63,869.49 c 1.47,1.47 3.86,1.47 5.34,0 1.47,-1.47 1.47,-3.86 0,-5.34 -1.47,-1.48 -3.86,-1.47 -5.34,0 -1.47,1.48 -1.47,3.87 0,5.34 z"
           id="path3269" />
        <path
           class="st1"
           d="m 1121.05,859.57 v 0 c -4,4 -4,10.51 0,14.51 4,4 10.51,4 14.5,0 3.99,-4 4,-10.51 0,-14.5 -3.99,-4.01 -10.5,-4.01 -14.5,-0.01 z m 13.43,1.08 c 3.41,3.41 3.41,8.94 0,12.34 -3.41,3.41 -8.94,3.41 -12.34,0 -3.41,-3.41 -3.41,-8.94 0,-12.34 3.41,-3.4 8.93,-3.41 12.34,0 z"
           id="path3271" />
        <path
           class="st1"
           d="m 1140.19,853.84 1.08,-1.08 c -1.05,-0.97 -2.17,-1.79 -3.36,-2.48 l -0.34,0.63 -1.36,-0.73 0.33,-0.62 c -1.12,-0.53 -2.27,-0.95 -3.45,-1.25 l -0.13,0.66 -1.51,-0.3 0.14,-0.69 c -1.39,-0.24 -2.8,-0.32 -4.21,-0.25 l 0.02,0.73 -1.54,0.03 -0.01,-0.63 c -1.06,0.14 -2.11,0.35 -3.13,0.66 l 0.21,0.75 -1.48,0.42 -0.19,-0.66 c -0.87,0.34 -1.71,0.76 -2.52,1.24 l 0.38,0.64 -1.33,0.78 -0.36,-0.6 c -0.73,0.5 -1.42,1.07 -2.08,1.68 l 1.08,1.08 c 6.71,-6.17 17.04,-6.17 23.76,-0.01 z"
           id="path3273" />
        <path
           class="st1"
           d="m 1121.05,859.57 c 0,0 0,0 0,0 0,0 0,0 0,0 l 0.55,-0.55 -5.18,-5.18 c -0.19,0.17 -0.39,0.33 -0.57,0.52 -0.18,0.19 -0.34,0.38 -0.52,0.57 l 5.18,5.18 z"
           id="path3275" />
        <path
           class="st1"
           d="m 1114.76,853.28 c 0.18,-0.18 0.38,-0.34 0.57,-0.52 l -8.97,-8.97 c -0.19,0.18 -0.39,0.33 -0.57,0.52 -0.18,0.18 -0.34,0.39 -0.52,0.57 l 8.97,8.97 c 0.18,-0.19 0.34,-0.38 0.52,-0.57 z"
           id="path3277" />
        <path
           class="st1"
           d="m 1115.84,854.36 c 0.18,-0.18 0.38,-0.34 0.57,-0.52 l -1.08,-1.08 c -0.19,0.17 -0.39,0.33 -0.57,0.52 -0.18,0.18 -0.34,0.38 -0.52,0.57 l 1.08,1.08 c 0.18,-0.19 0.34,-0.38 0.52,-0.57 z"
           id="path3281" />
        <path
           class="st1"
           d="m 1104.18,843.79 1.09,1.09 c 0.18,-0.19 0.33,-0.39 0.52,-0.57 0.18,-0.18 0.39,-0.34 0.57,-0.52 l -1.09,-1.09 c -0.19,0.18 -0.38,0.35 -0.56,0.53 -0.18,0.18 -0.35,0.38 -0.53,0.56 z"
           id="path3283" />
        <path
           class="st1"
           d="m 1136.1,860.12 5.18,-5.18 c -0.17,-0.19 -0.33,-0.39 -0.52,-0.57 l -5.21,5.21 z"
           id="path3285" />
        <path
           class="st1"
           d="m 1135.56,859.57 5.21,-5.21 c -0.18,-0.18 -0.38,-0.34 -0.57,-0.52 l -5.18,5.18 z"
           id="path3287" />
        <path
           class="st1"
           d="m 1142.36,853.85 8.97,-8.97 c -0.18,-0.19 -0.33,-0.39 -0.52,-0.57 l -8.97,8.97 c 0.19,0.19 0.35,0.38 0.52,0.57 z"
           id="path3289" />
        <path
           class="st1"
           d="m 1141.85,853.28 8.97,-8.97 c -0.18,-0.18 -0.39,-0.34 -0.57,-0.52 l -8.97,8.97 c 0.18,0.18 0.38,0.34 0.57,0.52 z"
           id="path3291" />
        <path
           class="st1"
           d="m 1141.28,854.93 1.08,-1.08 c -0.17,-0.19 -0.33,-0.39 -0.52,-0.57 l -1.08,1.08 c 0.19,0.19 0.35,0.38 0.52,0.57 z"
           id="path3293" />
        <path
           class="st1"
           d="m 1140.77,854.36 1.08,-1.08 c -0.18,-0.18 -0.38,-0.34 -0.57,-0.52 l -1.08,1.08 c 0.18,0.18 0.38,0.34 0.57,0.52 z"
           id="path3295" />
        <path
           class="st1"
           d="m 1150.81,844.31 1.08,-1.08 c -0.18,-0.18 -0.37,-0.35 -0.56,-0.53 l -1.09,1.09 c 0.19,0.18 0.39,0.34 0.57,0.52 z"
           id="path3297" />
        <path
           class="st1"
           d="m 1150.81,844.31 c 0.18,0.18 0.34,0.39 0.52,0.57 l 1.09,-1.09 c -0.18,-0.19 -0.35,-0.38 -0.53,-0.56 z"
           id="path3299" />
        <path
           class="st1"
           d="m 1118.72,850.26 -6.44,-10.91 c -0.44,0.26 -0.89,0.5 -1.33,0.78 l 6.46,10.95 c 0.43,-0.29 0.87,-0.56 1.31,-0.82 z"
           id="path3301" />
        <path
           class="st1"
           d="m 1119.1,850.91 -0.38,-0.64 c -0.44,0.26 -0.88,0.53 -1.3,0.82 l 0.36,0.6 z"
           id="path3303" />
        <path
           class="st1"
           d="m 1112.28,839.35 -0.79,-1.34 c -0.44,0.26 -0.88,0.53 -1.31,0.81 l 0.78,1.32 c 0.43,-0.29 0.88,-0.53 1.32,-0.79 z"
           id="path3305" />
        <path
           class="st1"
           d="m 1137.91,850.28 6.02,-11.17 c -0.45,-0.25 -0.9,-0.5 -1.36,-0.73 l -6.02,11.18 c 0.46,0.22 0.91,0.46 1.36,0.72 z"
           id="path3307" />
        <path
           class="st1"
           d="m 1137.57,850.91 0.34,-0.63 c -0.45,-0.26 -0.9,-0.5 -1.36,-0.72 l -0.33,0.62 z"
           id="path3309" />
        <path
           class="st1"
           d="m 1143.93,839.11 0.73,-1.36 c -0.45,-0.25 -0.9,-0.49 -1.36,-0.72 l -0.73,1.35 c 0.46,0.23 0.91,0.48 1.36,0.73 z"
           id="path3311" />
        <path
           class="st1"
           d="m 1133.09,848.31 2.48,-12.45 c -0.5,-0.12 -1,-0.24 -1.5,-0.34 l -2.48,12.45 c 0.5,0.09 1,0.21 1.5,0.34 z"
           id="path3313" />
        <path
           class="st1"
           d="m 1132.96,848.97 0.13,-0.66 c -0.5,-0.13 -1,-0.24 -1.51,-0.33 l -0.14,0.69 z"
           id="path3315" />
        <path
           class="st1"
           d="m 1135.57,835.86 0.3,-1.51 c -0.5,-0.12 -1,-0.22 -1.51,-0.31 l -0.3,1.49 c 0.51,0.09 1.01,0.21 1.51,0.33 z"
           id="path3317" />
        <path
           class="st1"
           d="m 1122.7,848.52 -3.46,-12.22 c -0.49,0.15 -0.97,0.34 -1.46,0.51 l 3.46,12.22 c 0.49,-0.19 0.97,-0.36 1.46,-0.51 z"
           id="path3319" />
        <path
           class="st1"
           d="m 1122.92,849.27 -0.21,-0.75 c -0.49,0.15 -0.98,0.32 -1.46,0.51 l 0.19,0.66 z"
           id="path3321" />
        <path
           class="st1"
           d="m 1119.24,836.3 -0.41,-1.46 c -0.49,0.14 -0.98,0.3 -1.47,0.47 l 0.42,1.5 c 0.49,-0.17 0.97,-0.37 1.46,-0.51 z"
           id="path3323" />
        <path
           class="st1"
           d="m 1127.38,847.73 -0.28,-12.68 c -0.51,0.02 -1.03,0.03 -1.54,0.07 l 0.29,12.74 c 0.5,-0.07 1.01,-0.11 1.53,-0.13 z"
           id="path3325" />
        <path
           class="st1"
           d="m 1127.39,848.45 -0.02,-0.73 c -0.51,0.02 -1.03,0.07 -1.54,0.13 l 0.01,0.63 z"
           id="path3327" />
        <path
           class="st1"
           d="m 1127.09,835.05 -0.03,-1.54 c -0.51,0.02 -1.03,0.05 -1.54,0.09 l 0.03,1.52 c 0.51,-0.04 1.03,-0.05 1.54,-0.07 z"
           id="path3329" />
        <path
           class="st1"
           d="m 1140.73,854.39 9.36,9.36 c 3.03,3.03 7.95,3.02 10.97,0 2.97,-2.97 2.97,-8 0,-10.97 -1.86,-1.86 -5,-3.06 -7.73,-0.33 -2.02,2.02 -1.62,4.6 -0.22,6 0.61,0.61 1.39,0.97 2.19,1.01 0.89,0.04 1.75,-0.32 2.47,-1.04 l -1.09,-1.09 c -0.41,0.41 -0.85,0.61 -1.31,0.59 -0.41,-0.02 -0.82,-0.21 -1.17,-0.56 -0.72,-0.72 -1.26,-2.34 0.22,-3.82 2.42,-2.42 4.86,-0.36 5.55,0.33 2.34,2.34 2.34,6.45 0,8.79 -2.42,2.42 -6.37,2.42 -8.79,0 l -9.36,-9.36"
           id="path3333" />
        <path
           class="st1"
           d="m 1115.87,854.39 -9.3,9.3 c -3.03,3.03 -7.95,3.02 -10.97,0 -2.97,-2.97 -2.97,-8 0,-10.97 1.86,-1.86 5,-3.06 7.73,-0.33 2.02,2.02 1.62,4.6 0.22,6 -0.61,0.61 -1.39,0.97 -2.19,1.01 -0.89,0.04 -1.75,-0.32 -2.47,-1.04 l 1.09,-1.09 c 0.41,0.41 0.85,0.61 1.31,0.59 0.41,-0.02 0.82,-0.21 1.17,-0.56 0.72,-0.72 1.26,-2.34 -0.22,-3.82 -2.42,-2.42 -4.86,-0.36 -5.55,0.33 -2.34,2.34 -2.34,6.45 0,8.79 2.42,2.42 6.37,2.42 8.79,0 l 9.3,-9.3"
           id="path3335" />
        <path
           class="st1"
           d="M 1128,841.18"
           id="path3337" />
        <path
           class="st1"
           d="m 1125.63,864.32 c 1.47,-1.47 3.86,-1.47 5.34,0 1.47,1.47 1.47,3.86 0,5.34 -1.47,1.47 -3.86,1.47 -5.34,0 -1.47,-1.48 -1.47,-3.87 0,-5.34 z"
           id="path3343" />
        <path
           class="st1"
           d="m 1121.05,874.24 v 0 c -4,-4 -4,-10.51 0,-14.51 4,-4 10.51,-4 14.5,0 4,4 4,10.51 0,14.5 -3.99,4.01 -10.5,4.01 -14.5,0.01 z m 13.43,-1.08 c 3.41,-3.41 3.41,-8.94 0,-12.34 -3.41,-3.4 -8.94,-3.41 -12.34,0 -3.41,3.41 -3.41,8.94 0,12.34 3.41,3.4 8.93,3.41 12.34,0 z"
           id="path3345" />
        <path
           class="st1"
           d="m 1140.19,879.97 1.08,1.08 c -1.05,0.97 -2.17,1.79 -3.36,2.48 l -0.34,-0.63 -1.36,0.73 0.33,0.62 c -1.12,0.53 -2.27,0.95 -3.45,1.25 l -0.13,-0.66 -1.51,0.3 0.14,0.69 c -1.39,0.24 -2.8,0.32 -4.21,0.25 l 0.02,-0.73 -1.54,-0.03 -0.01,0.63 c -1.06,-0.14 -2.11,-0.35 -3.13,-0.66 l 0.21,-0.75 -1.48,-0.42 -0.19,0.66 c -0.87,-0.34 -1.71,-0.76 -2.52,-1.24 l 0.38,-0.64 -1.33,-0.78 -0.36,0.6 c -0.73,-0.5 -1.42,-1.07 -2.08,-1.68 l 1.08,-1.08 c 6.71,6.17 17.04,6.17 23.76,0.01 z"
           id="path3347" />
        <path
           class="st1"
           d="m 1121.05,874.24 c 0,0 0,0 0,0 0,0 0,0 0,0 l 0.55,0.55 -5.18,5.18 c -0.19,-0.17 -0.39,-0.33 -0.57,-0.52 -0.18,-0.18 -0.34,-0.38 -0.52,-0.57 l 5.18,-5.18 z"
           id="path3349" />
        <path
           class="st1"
           d="m 1115.84,879.45 c 0.18,0.18 0.38,0.34 0.57,0.52 l -1.08,1.08 c -0.19,-0.17 -0.39,-0.33 -0.57,-0.52 -0.18,-0.18 -0.34,-0.38 -0.52,-0.57 l 1.08,-1.08 c 0.18,0.19 0.34,0.39 0.52,0.57 z"
           id="path3353" />
        <path
           class="st1"
           d="m 1136.1,873.69 5.18,5.18 c -0.17,0.19 -0.33,0.39 -0.52,0.57 l -5.21,-5.21 z"
           id="path3355" />
        <path
           class="st1"
           d="m 1135.56,874.24 5.21,5.21 c -0.18,0.18 -0.38,0.34 -0.57,0.52 l -5.18,-5.18 z"
           id="path3357" />
        <path
           class="st1"
           d="m 1141.28,878.88 1.08,1.08 c -0.17,0.19 -0.33,0.39 -0.52,0.57 l -1.08,-1.08 c 0.19,-0.18 0.35,-0.38 0.52,-0.57 z"
           id="path3359" />
        <path
           class="st1"
           d="m 1140.77,879.45 1.08,1.08 c -0.18,0.18 -0.38,0.34 -0.57,0.52 l -1.08,-1.08 c 0.18,-0.18 0.38,-0.34 0.57,-0.52 z"
           id="path3361" />
        <path
           class="st1"
           d="m 1119.1,882.91 -0.38,0.64 c -0.44,-0.26 -0.88,-0.53 -1.3,-0.82 l 0.36,-0.6 z"
           id="path3363" />
        <path
           class="st1"
           d="m 1137.57,882.9 0.34,0.63 c -0.45,0.26 -0.9,0.5 -1.36,0.72 l -0.33,-0.62 z"
           id="path3365" />
        <path
           class="st1"
           d="m 1132.96,884.85 0.13,0.66 c -0.5,0.13 -1,0.24 -1.51,0.33 l -0.14,-0.69 z"
           id="path3367" />
        <path
           class="st1"
           d="m 1122.92,884.54 -0.21,0.75 c -0.49,-0.15 -0.98,-0.32 -1.46,-0.51 l 0.19,-0.66 z"
           id="path3369" />
        <path
           class="st1"
           d="m 1127.39,885.36 -0.02,0.73 c -0.51,-0.02 -1.03,-0.07 -1.54,-0.13 l 0.01,-0.63 z"
           id="path3371" />
      </g>
    </g>
  </g>
</svg>
